<svg focusable="false" viewBox="0 0 300 100" role="img" x="0px" y="0px"><g><path fill="#e5ded6" d="M275.7,52.3h13.2c-0.3-4.3-2.3-8.2-6.5-8.2C278.3,44,276.3,47.1,275.7,52.3z M266.2,56.4 c0-10.3,7.8-17.7,17.2-17.7c8.5,0,14.7,5.7,14.7,13.6c0,4-2.3,5.4-5.2,5.4h-17.3c0.6,6.5,4.4,10.2,10.3,10.2s7.6-3.7,9.9-3.7 c1,0,1.6,0.6,1.6,1.4c0,1.9-4.4,7.6-13.6,7.6C274.2,73.2,266.2,67.9,266.2,56.4z M208.1,44.3c0,1.7,1.1,2.7,2.9,2.7c1.5,0,2,1,2,4 v12.1c0,2.9,0.1,3.7-1,4.2c-1.8,0.8-2.4,1.3-2.4,2.7c0,1.6,1.2,2.6,3,2.6c2.2,0,1.7-0.3,5.1-0.3c3.4,0,2.9,0.3,5.1,0.3 c1.8,0,3-1,3-2.6c0-1.4-0.6-1.9-2.4-2.7c-1.1-0.5-1-1.3-1-4.2V52.5c0-4.9,2.5-8.2,6.4-8.2c2.6,0,3.5,1.4,3.5,5.4v13.5 c0,2.9,0.1,3.7-1,4.2c-1.8,0.8-2.4,1.3-2.4,2.7c0,1.6,1.2,2.6,3,2.6c2.4,0,1.9-0.3,5.1-0.3c3.2,0,2.7,0.3,5.1,0.3c1.8,0,3-1,3-2.6 c0-1.4-0.6-1.9-2.4-2.7c-1.1-0.5-1-1.3-1-4.2V52.5c0-4.9,2.5-8.2,6.4-8.2c2.6,0,3.5,1.4,3.5,5.4v13.5c0,2.9,0.1,3.7-1,4.2 c-1.8,0.8-2.4,1.3-2.4,2.7c0,1.6,1.2,2.6,3,2.6c2.4,0,1.9-0.3,5.1-0.3c3.2,0,2.7,0.3,5.1,0.3c1.8,0,3-1,3-2.6 c0-1.4-0.6-1.9-2.4-2.7c-1.1-0.5-1-1.3-1-4.2V52c0-9.5-4-13.3-10.7-13.3c-4.7,0-8,1.8-10.1,4.9c-1.8-3.4-5-4.9-9.1-4.9 c-3.5,0-6.4,1.4-8.5,3.8v-0.8c0-1.8-1-3-2.5-3c-2.5,0-3.8,2-8.7,3.1C209.1,42.2,208.1,43.1,208.1,44.3z M164.9,44.3 c0,1.7,1.1,2.7,2.9,2.7c1.5,0,2,1,2,4v9.9c0,7.9,4,12.3,11.4,12.3c4.7,0,8.6-1.7,10.8-4.6l0.2,0.4c1.5,3.2,4.4,4.2,7.4,4.2 c3.1,0,6.4-2.1,6.4-4.1c0-1-0.6-1.7-2.4-2c-2.5-0.4-3.2-1.4-3.2-4V41.7c0-1.8-1-3-2.5-3c-2.5,0-3.8,2-8.7,3.1c-1.9,0.4-3,1.3-3,2.6 c0,1.7,1.1,2.7,2.9,2.7c1.5,0,2,1,2,4v7.6c0,6.4-2.9,9.2-6.9,9.2c-3.6,0-5.1-2.6-5.1-6.7V41.7c0-1.8-1-3-2.5-3 c-2.5,0-3.8,2-8.7,3.1C166,42.2,164.9,43.1,164.9,44.3z M145.7,27.8c0,1.7,1.1,2.7,2.9,2.7c1.5,0,2,1,2,4v28.7c0,2.9,0.1,3.7-1,4.2 c-1.8,0.8-2.6,1.3-2.6,2.7c0,1.6,1.2,2.6,3,2.6c2.4,0,1.9-0.3,5.3-0.3c3.4,0,2.9,0.3,5.3,0.3c1.8,0,3-1,3-2.6 c0-1.4-0.8-1.9-2.6-2.7c-1.1-0.5-1-1.3-1-4.2v-38c0-1.8-1-3-2.5-3c-2.5,0-3.8,2-8.7,3.1C146.8,25.6,145.7,26.5,145.7,27.8z M118.3,56.4c0-7.3,3.7-12,9.4-12c4.9,0,7.8,4.8,7.8,12.3c0,6.8-3.3,11.1-8.5,11.1C121.6,67.8,118.3,63.4,118.3,56.4z M105,44.3 c0,1.7,1.1,2.7,2.9,2.7c1.5,0,2,1,2,4v27.9c0,2.9,0.1,3.7-1,4.2c-1.8,0.8-2.6,1.3-2.6,2.7c0,1.6,1.2,2.6,3,2.6 c2.4,0,1.9-0.3,5.3-0.3c3.4,0,2.9,0.3,5.3,0.3c1.8,0,3-1,3-2.6c0-1.4-0.8-1.9-2.6-2.7c-1.1-0.5-1-1.3-1-4.2v-8.9 c2.4,2.1,5.5,3.3,8.9,3.3c9.4,0,16.5-8.9,16.5-18.9c0-10-6.4-15.7-13.9-15.7c-4.4,0-8.4,1.7-11.5,4.6v-1.6c0-1.8-1-3-2.5-3 c-2.5,0-3.8,2-8.7,3.1C106.1,42.2,105,43.1,105,44.3z"></path><path fill="#e3c4b2" d="M48.4,45.6c0-4.3,6.6-14.8,23.5-20.2c-3.3,12.5-14.4,23.4-20.5,23.4C49.5,48.8,48.4,47.7,48.4,45.6z M11,77.6 c0-6.5,2.1-16,6-25.8c2.7,9.1,4.8,18.6,4.8,25.8c0,9.6-1.4,13-5.4,13S11,87.2,11,77.6z M1.9,77.6c0,16.2,6.8,22,14.4,22 c3.7,0,14.4-1.7,14.4-22c0-11-4-25.6-8.1-38C31.4,23.5,44.7,9.4,60.9,9.4c7.4,0,10.6,2.8,11.6,6.4C49,22,39.4,37.2,39.4,45.7 c0,7.5,5.5,12,12.3,12c10.6,0,27.4-15.4,29.8-34.6c4.1-0.6,8.6-1,13.6-1v-9c-5,0-9.5,0.3-13.8,1C79.6,7.1,74.1,0.4,60.9,0.4 c-17.5,0-32,12.4-42.3,28.1c-3.1-8.1-5.6-13.7-5.6-13.7l-8.3,3.5c0,0,4,8.9,8,20.5C5.8,52.6,1.9,67.3,1.9,77.6z"></path></g><title>Plume</title></svg>
